<svg height="512pt" viewBox="-59 0 511 512" width="512pt" xmlns="http://www.w3.org/2000/svg"><path d="m116.648438 357-22.125 20 56.976562 65 56.699219 20zm0 0" fill="#bcf7fc"/><path d="m276.351562 357 22.125 20-56.976562 65-56.699219 20zm0 0" fill="#97e4fd"/><path d="m196.5 0c-108.074219 0-196 87.925781-196 196 0 31.945312 7.800781 63.136719 22.410156 91l143.589844 60zm0 0" fill="#ffbe46"/><path d="m196.5 0 30 347 143.589844-60c14.609375-27.867188 22.410156-59.054688 22.410156-91 0-108.074219-87.925781-196-196-196zm0 0" fill="#ad2666"/><path d="m196.5 0-30 347 116.792969-60c7.308593-27.867188 11.207031-59.054688 11.207031-91 0-108.074219-43.960938-196-98-196zm0 0" fill="#ff364e"/><path d="m196.5 0c-54.035156 0-98 87.925781-98 196 0 31.945312 3.898438 63.136719 11.203125 91l86.796875 60zm0 0" fill="#ff8b2a"/><path d="m196.5 377h101.976562l45.660157-52.089844c10.183593-11.65625 18.867187-24.394531 25.953125-37.910156h-173.589844l-40 45zm0 0" fill="#4cbeff"/><path d="m22.910156 287c7.085938 13.511719 15.761719 26.246094 25.945313 37.898438l45.667969 52.101562h101.976562v-90zm0 0" fill="#71d1fe"/><path d="m241.5 442h-45l-20 35 20 35h45zm0 0" fill="#ff5233"/><path d="m151.5 442h45v70h-45zm0 0" fill="#ff6e2e"/></svg>